<svg width="517" height="539" viewBox="0 0 517 539" fill="none" xmlns="http://www.w3.org/2000/svg">
<path d="M283.289 461.09V376.898C359.502 369.196 428.156 324.795 466.144 257.146C472.563 245.737 468.474 231.332 457.111 224.915C445.7 218.497 431.294 222.585 424.876 233.947C391.357 293.657 328.076 330.737 259.659 330.737C191.243 330.737 127.962 293.657 94.4432 233.947C88.0247 222.538 73.6188 218.497 62.2082 224.915C54.4585 229.241 50.132 237.275 50.132 245.594C50.132 249.493 51.1304 253.486 53.1748 257.146C91.1627 324.795 159.769 369.244 236.03 376.898V461.09H283.289Z" fill="#448ACC"/>
<path d="M259.639 271.347C313.809 271.347 357.723 227.438 357.723 173.273C357.723 119.109 313.809 75.2 259.639 75.2C205.469 75.2 161.555 119.109 161.555 173.273C161.555 227.438 205.469 271.347 259.639 271.347Z" fill="#448ACC"/>
</svg>
