<svg width="1781" height="539" viewBox="0 0 1781 539" fill="none" xmlns="http://www.w3.org/2000/svg">
<path d="M500.533 349.353C488.095 345.557 478.236 340.542 470.982 334.281L482.117 309.323C489.2 314.932 497.899 319.493 508.212 323.034C518.496 326.576 528.866 328.36 539.236 328.36C552.099 328.36 561.675 326.292 568.022 322.184C574.369 318.077 577.542 312.637 577.542 305.867C577.542 300.909 575.757 296.858 572.215 293.628C568.674 290.427 564.169 287.905 558.729 286.092C553.289 284.279 545.866 282.211 536.488 279.916C523.313 276.8 512.632 273.656 504.472 270.511C496.312 267.395 489.314 262.465 483.449 255.808C477.584 249.122 474.666 240.113 474.666 228.753C474.666 219.206 477.272 210.509 482.457 202.69C487.642 194.871 495.462 188.638 505.945 184.02C516.4 179.403 529.234 177.108 544.393 177.108C554.932 177.108 565.33 178.439 575.53 181.074C585.758 183.709 594.57 187.505 601.993 192.434L591.85 217.393C584.257 212.945 576.352 209.574 568.107 207.251C559.862 204.956 551.872 203.794 544.138 203.794C531.444 203.794 522.01 205.947 515.833 210.225C509.657 214.503 506.568 220.197 506.568 227.28C506.568 232.238 508.325 236.26 511.895 239.405C515.436 242.55 519.941 245.014 525.353 246.827C530.793 248.64 538.216 250.709 547.594 253.003C560.457 255.978 570.997 259.066 579.242 262.267C587.487 265.468 594.513 270.398 600.378 276.97C606.215 283.571 609.161 292.467 609.161 303.657C609.161 313.204 606.554 321.873 601.37 329.607C596.185 337.341 588.308 343.545 577.768 348.135C567.229 352.752 554.366 355.047 539.208 355.047C525.863 355.019 512.972 353.121 500.533 349.353Z" fill="#161717"/>
<path d="M645.775 179.56H677.904V352.598H645.775V179.56Z" fill="#161717"/>
<path d="M883.089 179.56V352.598H856.626L761.201 235.426V352.598H729.327V179.56H755.79L851.214 296.732V179.56H883.089Z" fill="#161717"/>
<path d="M1046.48 312.53H959.956L942.9 352.56H909.779L987.637 179.522H1019.28L1097.4 352.56H1063.77L1046.48 312.53ZM1035.86 287.317L1003.22 211.676L970.836 287.317H1035.86Z" fill="#161717"/>
<path d="M1234.47 186.954C1245.6 191.912 1254.13 198.994 1260.05 208.201C1265.97 217.437 1268.95 228.401 1268.95 241.064C1268.95 253.586 1265.97 264.493 1260.05 273.813C1254.13 283.134 1245.6 290.244 1234.47 295.202C1223.33 300.16 1210.27 302.624 1195.28 302.624H1156.21V352.541H1124.08V179.56H1195.28C1210.27 179.56 1223.33 182.025 1234.47 186.954ZM1225.68 266.561C1232.94 260.64 1236.56 252.141 1236.56 241.092C1236.56 230.044 1232.94 221.573 1225.68 215.624C1218.43 209.703 1207.8 206.728 1193.81 206.728H1156.24V275.456H1193.81C1207.8 275.456 1218.43 272.482 1225.68 266.561Z" fill="#161717"/>
<path d="M1343.34 206.718H1286V179.522H1432.85V206.718H1375.5V352.56H1343.37V206.718H1343.34Z" fill="#161717"/>
<path d="M1461.77 179.56H1493.9V352.598H1461.77V179.56Z" fill="#161717"/>
<path d="M1657.56 312.53H1571.03L1553.97 352.56H1520.85L1598.71 179.522H1630.36L1708.47 352.56H1674.84L1657.56 312.53ZM1646.9 287.317L1614.26 211.676L1581.88 287.317H1646.9Z" fill="#161717"/>
<path d="M239.681 405.483V345.671C293.825 340.199 342.599 308.655 369.586 260.596C374.146 252.49 371.241 242.257 363.169 237.697C355.062 233.138 344.828 236.042 340.268 244.114C316.455 286.534 271.498 312.877 222.893 312.877C174.288 312.877 129.331 286.534 105.519 244.114C100.959 236.009 90.7245 233.138 82.618 237.697C77.1124 240.771 74.0387 246.478 74.0387 252.389C74.0387 255.158 74.748 257.995 76.2004 260.596C103.188 308.655 151.928 340.233 206.106 345.671V405.483H239.681Z" fill="#448ACC"/>
<path d="M222.879 270.684C261.363 270.684 292.56 239.49 292.56 201.009C292.56 162.529 261.363 131.335 222.879 131.335C184.395 131.335 153.197 162.529 153.197 201.009C153.197 239.49 184.395 270.684 222.879 270.684Z" fill="#448ACC"/>
</svg>
